HIERARCHY
ROOT pelvis
{
  OFFSET 0 100 0
  CHANNELS 6 Xposition Yposition Zposition Zrotation Xrotation Yrotation
  JOINT pelvis_right_femur
  {
    OFFSET -10.78128 -3.44521 -0.5502486
    CHANNELS 3 Zrotation Xrotation Yrotation
    JOINT right_femur_tibia
    {
      OFFSET -0.8047443 -44.0398 -0.1307829
      CHANNELS 3 Zrotation Xrotation Yrotation
      JOINT right_tibia_foot
      {
        OFFSET 3.006224 -47.83518 -5
        CHANNELS 3 Zrotation Xrotation Yrotation
        End Site
        {
          OFFSET 0 -5 15
        }
      }
    }
  }
  JOINT pelvis_left_femur
  {
    OFFSET 10.78128 -3.44521 -0.5502486
    CHANNELS 3 Zrotation Xrotation Yrotation
    JOINT left_femur_tibia
    {
      OFFSET 0.8047443 -44.0398 -0.1307829
      CHANNELS 3 Zrotation Xrotation Yrotation
      JOINT left_tibia_foot
      {
        OFFSET -4.370144 -48.10324 -4.275266
        CHANNELS 3 Zrotation Xrotation Yrotation
        End Site
        {
          OFFSET 0 -5 15
        }
      }
    }
  }
  JOINT pelvis_spine1
  {
    OFFSET 0 6.468898 -3.129235
    CHANNELS 3 Zrotation Xrotation Yrotation
    JOINT spine1
    {
      OFFSET 0 23.15396 4.99043
      CHANNELS 3 Zrotation Xrotation Yrotation
      JOINT spine2
      {
        OFFSET 0 20.79997 -5.064912
        CHANNELS 3 Zrotation Xrotation Yrotation
        JOINT neck
        {
          OFFSET 0 14.38658 9.616178
          CHANNELS 3 Zrotation Xrotation Yrotation
          End Site
          {
            OFFSET 0 20 0
          }
        }
      }
      JOINT right_manubrium
      {
        OFFSET -5.722621 16.35077 3.967754
        CHANNELS 3 Zrotation Xrotation Yrotation
        JOINT right_clavicle
        {
          OFFSET -13.16364 1.694482 -4.693211
          CHANNELS 3 Zrotation Xrotation Yrotation
          JOINT right_humerus
          {
            OFFSET -28.5034 -0.3100689 -2.792744
            CHANNELS 3 Zrotation Xrotation Yrotation
            JOINT right_radius
            {
              OFFSET -25.15693 0.02248979 -1.271978
              CHANNELS 3 Zrotation Xrotation Yrotation
              End Site
              {
                OFFSET -15 0 0
              }
            }
          }
        }
      }
      JOINT left_manubrium
      {
        OFFSET 5.722621 16.35077 3.967754
        CHANNELS 3 Zrotation Xrotation Yrotation
        JOINT left_clavicle
        {
          OFFSET 13.16364 1.694482 -4.693211
          CHANNELS 3 Zrotation Xrotation Yrotation
          JOINT left_humerus
          {
            OFFSET 29.39168 -1.063119 -2.237045
            CHANNELS 3 Zrotation Xrotation Yrotation
            JOINT left_radius
            {
              OFFSET 24.59957 -0.9528479 0.9047498
              CHANNELS 3 Zrotation Xrotation Yrotation
              End Site
              {
                OFFSET 15 -0 -0
              }
            }
          }
        }
      }
    }
  }
}
MOTION
Frames: 11
Frame Time: 0.0416666666667
409.7947 121.5077 3113.006 2.293402 -7.618914 6.198848 0.1570758 16.41744 0.6599792 -0 41.05625 -0 -7.205667 5.192111 1.255692 -3.950947 -13.49019 -9.241513 -0 17.27697 -0 -1.849693 -7.737601 19.90266 1.136077 -1.879615 8.813904 -0.627819 14.48172 -3.731978 1.831019 21.00903 1.799986 -0.6896754 -19.68877 5.349844 -5.165012 -32.0508 11.0677 89.34513 16.64705 -4.526644 -0 0 29.4981 -23.23579 12.82651 16.82006 0.3433804 -17.79729 -5.604348 -99.77912 14.01959 43.38379 -0 0 0.06233036 0.8000553 12.55523 14.11349
411.5453 122.9348 3119.259 2.515016 -8.669673 6.685392 0.115481 12.08939 0.2456972 -0 46.5707 -0 -8.115092 8.260408 0.7972482 -4.811821 -9.279461 -9.843061 -0 19.10926 -0 -0.832593 -8.820814 19.85839 1.013052 -1.791955 8.429241 -0.5952782 14.26587 -3.811524 1.860373 21.25972 2.059427 -0.4651732 -19.73125 5.514827 -5.016671 -31.18219 11.02286 89.54879 16.9828 -5.263524 -0 0 28.06994 -23.15541 12.57507 16.38386 0.6804362 -18.11359 -5.667143 -98.97324 14.51464 41.51442 0 0 -1.029775 1.389326 12.87914 13.21561
413.1811 124.433 3125.038 2.69323 -9.516808 7.323978 0.1473523 6.554123 -0.1745311 -0 49.59902 -0 -8.656931 9.559859 -0.06151259 -5.354171 -4.873953 -10.18303 -0 19.64227 -0 0.227317 -10.29131 19.61113 0.9184694 -1.755731 7.981832 -0.5023425 14.11816 -4.026649 1.873444 21.47829 2.329197 -0.2594119 -19.85348 5.687657 -4.924215 -30.248 11.00388 90.03001 17.24421 -6.43322 -0 0 26.32033 -23.01959 12.3444 15.82792 1.036889 -18.67263 -5.831139 -97.8742 14.98882 39.27018 0 0 -2.79862 2.12977 13.22667 12.14381
414.6787 125.7198 3130.35 2.818112 -9.870045 8.078315 0.1188501 0.1641112 -0.6366375 -0 49.42605 -0 -8.734403 9.363209 -1.120332 -5.633316 -0.5034597 -10.34057 -0 18.55528 -0 1.035622 -12.19604 19.1381 0.8542242 -1.775895 7.495192 -0.3533455 14.04926 -4.371564 1.865852 21.65344 2.6006 -0.07362245 -20.05528 5.854399 -4.889542 -29.28409 11.01817 90.77556 17.40541 -8.004733 -0 0 24.31336 -22.83483 12.12379 15.16577 1.401876 -19.466 -6.093114 -96.51512 15.38756 36.71687 0 0 -5.211418 3.010972 13.56906 10.91273
416.0381 126.5538 3135.316 2.861181 -9.487474 8.90636 -0.08030274 -6.677907 -1.221539 -0 45.78505 -0 -8.342609 8.340648 -2.055236 -5.739657 3.566247 -10.37984 -0 15.95975 -0 1.291843 -14.5446 18.41137 0.8193326 -1.854387 6.997721 -0.1553382 14.06512 -4.832856 1.833807 21.77553 2.864615 0.09303904 -20.33322 5.999528 -4.910164 -28.32807 11.07216 91.75091 17.4423 -9.919806 -0 0 22.13044 -22.60881 11.89549 14.41621 1.763965 -20.47113 -6.44308 -94.9484 15.65897 33.94159 0 0 -8.200405 4.015395 13.87113 9.543373
417.2873 126.774 3140.137 2.774671 -8.231295 9.768159 -0.5132389 -13.57719 -1.994184 -0 38.91668 -0 -7.477397 7.240352 -2.577671 -5.766461 7.078701 -10.33242 -0 12.30953 -0 0.7456952 -17.27761 17.3851 0.8102987 -1.988399 6.519423 0.0817286 14.1639 -5.387933 1.776091 21.83902 3.111679 0.2410457 -20.67926 6.109775 -4.980558 -27.41719 11.1683 92.90017 17.33688 -12.08899 -0 0 19.86778 -22.35039 11.64026 13.60569 2.110727 -21.64618 -6.862557 -93.24843 15.76722 31.05474 0 0 -11.65208 5.11089 14.09692 8.074023
418.4792 126.3094 3145.042 2.507881 -6.129772 10.63524 -1.162237 -20.15685 -2.941389 -0 29.57395 -0 -6.130926 6.60283 -2.573512 -5.783227 9.871536 -10.20103 -0 8.310779 -0 -0.7379568 -20.21654 16.00764 0.8216148 -2.168578 6.087058 0.3446117 14.33328 -6.003785 1.69591 21.84544 3.332516 0.3689202 -21.0789 6.178534 -5.092778 -26.58476 11.30232 94.14825 17.08486 -14.39085 -0 0 17.63029 -22.07063 11.34526 12.7701 2.429249 -22.9268 -7.323885 -91.50923 15.70545 28.18608 0 0 -15.39772 6.246375 14.21974 6.567056
419.6801 125.1729 3150.242 2.036246 -3.424661 11.49593 -1.898473 -26.03119 -3.939072 -0 18.97901 -0 -4.379301 6.63218 -2.148473 -5.821147 11.95397 -9.977298 -0 4.855725 -0 -3.101535 -23.02141 14.26875 0.8464804 -2.378304 5.719687 0.61649 14.54991 -6.637397 1.601467 21.80504 3.51969 0.4734106 -21.50956 6.208482 -5.235978 -25.857 11.46204 95.40603 16.70452 -16.6775 -0 0 15.5244 -21.78445 11.01206 11.9546 2.707571 -24.22765 -7.791803 -89.83625 15.50135 25.4759 0 0 -19.21152 7.354257 14.23306 5.106914
420.9522 123.4553 3155.901 1.391159 -0.5718286 12.34707 -2.481499 -30.78561 -4.770197 -0 8.680612 -0 -2.481808 7.234698 -1.561368 -5.872629 13.51721 -9.661872 -0 2.922275 -0 -6.008447 -25.21212 12.2874 0.87801 -2.595498 5.426634 0.8778426 14.78314 -7.239938 1.50452 21.73513 3.668753 0.5509182 -21.94081 6.210445 -5.396144 -25.25235 11.6292 96.58086 16.24016 -18.79082 -0 0 13.65066 -21.51066 10.66091 11.20962 2.936217 -25.4518 -8.228341 -88.33274 15.21121 23.06239 0 0 -22.82809 8.360272 14.15541 3.788128
422.3372 121.3288 3162.124 0.6741482 1.838969 13.16972 -2.614947 -34.01071 -5.195793 -0 0.2604867 -0 -0.8942906 8.143233 -1.087465 -5.902469 14.84732 -9.275816 -0 3.388177 -0 -8.819381 -26.2948 10.38428 0.9109886 -2.797437 5.208987 1.109413 15.00296 -7.765398 1.41723 21.65452 3.777793 0.5985224 -22.33842 6.198513 -5.557976 -24.78381 11.78401 97.59188 15.75364 -20.58852 -0 0 12.09636 -21.26899 10.3278 10.58308 3.108543 -26.508 -8.600349 -87.08394 14.90332 21.06788 0 0 -25.9844 9.197078 14.02451 2.698162
423.8477 119.0543 3168.945 0.03822592 3.257286 13.90681 -2.069741 -35.39611 -5.060204 0 -5.064373 0 -0.130765 9.047394 -0.8977225 -5.866713 16.16315 -8.858949 -0 6.802703 -0 -10.77574 -25.94731 9.001837 0.9436185 -2.966868 5.064001 1.296515 15.18879 -8.180519 1.348774 21.57649 3.845334 0.6133783 -22.6719 6.18391 -5.709001 -24.46365 11.91068 98.38446 15.30523 -21.96934 -0 0 10.9297 -21.07497 10.0551 10.11231 3.21925 -27.32881 -8.886483 -86.14588 14.63759 19.58886 0 0 -28.47176 9.814994 13.88251 1.903638
